<svg xmlns="http://www.w3.org/2000/svg" xmlns:xlink="http://www.w3.org/1999/xlink" version="1.1" id="Layer_1" x="0px" y="0px" width="100%" viewBox="0 0 1024 1024" enable-background="new 0 0 1024 1024" xml:space="preserve" fill="currentColor" stroke="currentColor">
<path fill="currentColor" opacity="1.000000" stroke="none" d=" M370.779724,670.000000   C370.785797,533.849670 370.798218,398.199341 370.792236,262.549011   C370.791565,246.922089 373.459991,232.053329 382.820892,219.035767   C394.397095,202.937607 409.878662,193.400162 429.868347,192.752396   C504.330963,190.339371 578.820312,192.134125 653.297119,191.748245   C688.197937,191.567429 709.828247,216.822952 714.843750,244.661407   C718.841370,266.850128 712.679565,287.272705 699.401184,305.392700   C694.914368,311.515503 688.464172,315.575012 682.092712,319.557068   C679.693054,321.056824 676.966003,322.096741 674.746521,323.810364   C662.197632,333.499359 648.778076,330.992493 635.258423,326.778412   C631.632690,325.648346 628.166931,324.005280 624.309265,322.471069   C625.397522,317.424225 627.849670,313.132690 631.083008,309.388489   C646.286621,291.782928 654.437622,270.384186 663.546631,249.495667   C664.209778,247.975082 664.603943,246.338531 665.149414,244.764999   C666.360168,241.272827 665.539307,239.459625 661.437317,239.314346   C641.334106,238.602356 621.571899,240.580109 602.236938,246.301834   C578.807190,253.235336 556.492798,262.927216 535.665405,275.551636   C525.085754,281.964478 515.181641,289.775604 506.716309,299.094940   C504.306854,301.747467 504.099915,303.806000 506.499725,306.811066   C512.354370,314.142334 512.861572,323.837311 516.944946,332.002686   C517.746399,333.605316 517.827087,335.551758 520.166199,338.017242   C537.972046,317.874084 558.005249,300.325897 580.292969,285.391266   C602.607239,270.438812 626.398987,258.484253 651.625854,249.094894   C648.828918,253.303177 645.354248,256.728394 641.310852,259.574188   C616.250122,277.212189 591.670654,295.493774 568.449829,315.508179   C555.813232,326.399872 544.574463,338.701965 534.244934,351.825439   C530.745117,356.271881 526.930725,360.469208 523.338196,364.844482   C508.688629,382.686127 497.424225,402.551880 487.270325,423.238068   C478.110229,441.899628 471.097687,461.170258 466.942535,481.471649   C465.181000,490.078186 463.377716,498.728302 463.139008,507.574799   C463.089813,509.398010 463.210266,511.230743 463.344604,513.052307   C463.436340,514.295715 464.003021,515.325134 465.334320,515.609680   C466.719696,515.905823 467.504883,515.051086 468.071045,513.943054   C469.736938,510.682831 471.369049,507.405151 473.050995,504.153259   C483.712494,483.540070 498.512207,465.982758 513.783386,448.745514   C520.628113,441.019562 526.934082,432.815338 533.802917,425.112122   C538.104797,420.287720 542.791138,415.751923 547.675293,411.513245   C555.674805,404.570862 565.216553,401.748322 575.775330,401.770294   C593.429626,401.807007 611.053101,400.092651 628.719849,400.678375   C641.051086,401.087250 653.336121,399.857147 665.645203,399.737061   C681.804871,399.579346 694.097717,406.693512 703.965149,419.512421   C721.585632,442.403503 718.438599,476.684723 699.433655,497.913635   C688.986206,509.583679 674.917419,514.873535 659.709656,515.139587   C625.557190,515.737305 591.387085,515.299133 557.224365,515.357605   C547.982361,515.373413 538.865662,516.333313 530.930908,521.709595   C519.658752,529.347046 512.551331,539.921814 512.455566,553.617798   C512.121216,601.443359 512.425537,649.272949 512.315247,697.100647   C512.263733,719.446228 501.553650,735.752258 482.592621,746.797974   C476.420135,750.393738 469.682312,753.040161 462.722046,754.838501   C457.745667,756.124329 456.765076,755.260010 456.704681,750.218994   C456.295227,716.060120 457.111511,681.924622 458.457214,647.793030   C458.877075,637.143127 458.602142,626.465576 458.633453,615.800720   C458.637878,614.288574 458.415161,612.820129 457.456238,611.497803   C455.964142,610.829224 454.567932,611.513184 453.162262,611.935242   C445.518951,614.230103 438.052002,613.312073 430.606934,610.895081   C425.682861,609.296387 424.351379,610.170166 424.272797,615.077576   C423.912811,637.558350 423.262329,660.052673 424.461792,682.516296   C425.661102,704.977112 425.750519,727.456055 426.325470,749.927368   C426.409912,753.228027 425.591370,755.153564 421.841187,754.456421   C401.460876,750.667725 382.954071,740.467590 375.518616,718.868713   C371.584930,707.441956 369.895294,695.627380 370.688843,683.486816   C370.970703,679.174316 370.764191,674.829834 370.779724,670.000000  M462.294647,421.243713   C462.194214,420.601624 462.254730,419.875458 461.969635,419.329834   C456.126617,408.146484 449.430695,397.410797 444.490570,385.748535   C443.829315,384.187439 443.125519,382.298920 441.047028,381.741028   C432.439117,389.753571 429.461243,400.660156 426.560516,411.259125   C418.728516,439.876068 416.110748,469.060547 419.463501,498.619354   C420.132324,504.516083 421.904663,510.288727 423.189697,516.113831   C423.585205,517.906738 424.562378,519.208252 426.560028,519.167175   C428.334259,519.130737 429.123566,517.836609 429.608551,516.321533   C429.963501,515.212708 430.302643,514.098694 430.640533,512.984497   C435.464478,497.077606 438.235809,480.624390 443.602875,464.853577   C448.643127,450.043304 453.443451,435.154968 462.294647,421.243713  M460.467926,371.144043   C464.612000,380.476349 468.756042,389.808655 472.830475,398.984131   C475.013428,398.496185 475.461884,397.292572 476.009644,396.339111   C483.074127,384.041809 491.133911,372.471344 500.587738,361.869415   C502.788025,359.401917 504.558899,356.544037 506.454803,353.815338   C507.616119,352.143890 507.507385,350.545471 506.290649,348.775208   C501.176880,341.335266 497.132782,333.353790 494.086487,324.826324   C492.832397,321.315765 490.834320,318.070984 488.910919,314.170380   C479.417694,324.787018 471.171051,335.569824 462.152374,345.558563   C454.201141,354.365143 455.182098,361.711548 460.467926,371.144043  M447.878387,542.464355   C440.378326,541.251953 433.587433,543.742554 427.519470,547.514893   C420.688599,551.761536 414.421021,560.856445 418.378387,568.943298   C421.771057,575.876282 425.931671,582.215088 432.705444,586.422119   C437.603699,589.464233 442.667389,590.459595 448.387543,588.938843   C457.638214,586.479431 461.886597,579.152771 465.568695,571.498230   C469.738922,562.828979 467.100800,553.471985 459.486420,547.504639   C456.288177,544.998169 452.689789,543.392029 447.878387,542.464355  z"/>
</svg>